<mxfile host="app.diagrams.net" modified="2023-04-25T14:50:53.825Z" agent="Mozilla/5.0 (Macintosh; Intel Mac OS X 10_15_7) AppleWebKit/537.36 (KHTML, like Gecko) Chrome/112.0.0.0 Safari/537.36" version="21.2.1" etag="eWNUdkvh4KfJc8FpGYM1" type="github">
  <diagram name="Page-1" id="5Dto0okphk9pQ81u6EEt">
    <mxGraphModel>
      <root>
        <mxCell id="0" />
        <mxCell id="1" parent="0" />
      </root>
    </mxGraphModel>
  </diagram>
</mxfile>
